<svg version="1.1" viewBox="0 0 156 56" xmlns="http://www.w3.org/2000/svg">
 <defs>
  <clipPath id="ae">
   <path d="m748.32 8e3h249.44v-139.9h-249.44z" stroke-width=".26396"/>
  </clipPath>
  <clipPath id="y">
   <path d="m748.32 7860.1h249.44v-139.9h-249.44z" stroke-width=".26396"/>
  </clipPath>
  <clipPath id="t">
   <path d="m748.32 7720.2h249.44v-139.9h-249.44z" stroke-width=".26396"/>
  </clipPath>
  <clipPath id="l">
   <path d="m498.88 8e3h249.44v-139.9h-249.44z" stroke-width=".26396"/>
  </clipPath>
  <clipPath id="j">
   <path d="m498.88 7860.1h249.44v-139.9h-249.44z" stroke-width=".26396"/>
  </clipPath>
  <clipPath id="h">
   <path d="m498.88 7720.2h249.44v-139.9h-249.44z" stroke-width=".26396"/>
  </clipPath>
  <clipPath id="f">
   <path d="m249.44 8e3h249.44v-139.9h-249.44z" stroke-width=".26396"/>
  </clipPath>
  <clipPath id="d">
   <path d="m249.44 7860.1h249.44v-139.9h-249.44z" stroke-width=".26396"/>
  </clipPath>
  <clipPath id="b">
   <path d="m249.44 7720.2h249.44v-139.9h-249.44z" stroke-width=".26396"/>
  </clipPath>
  <clipPath id="k">
   <path d="m498.88 8e3h249.44v-139.9h-249.44z" stroke-width=".26396"/>
  </clipPath>
  <clipPath id="i">
   <path d="m498.88 7860.1h249.44v-139.9h-249.44z" stroke-width=".26396"/>
  </clipPath>
  <clipPath id="g">
   <path d="m498.88 7720.2h249.44v-139.9h-249.44z" stroke-width=".26396"/>
  </clipPath>
  <clipPath id="e">
   <path d="m249.44 8e3h249.44v-139.9h-249.44z" stroke-width=".26396"/>
  </clipPath>
  <clipPath id="c">
   <path d="m249.44 7860.1h249.44v-139.9h-249.44z" stroke-width=".26396"/>
  </clipPath>
  <clipPath id="af">
   <path d="m249.44 7720.2h249.44v-139.9h-249.44z" stroke-width=".26396"/>
  </clipPath>
  <clipPath id="ac">
   <path d="m748.32 8e3h249.44v-139.9h-249.44z" stroke-width=".26396"/>
  </clipPath>
  <clipPath id="x">
   <path d="m748.32 7860.1h249.44v-139.9h-249.44z" stroke-width=".26396"/>
  </clipPath>
  <clipPath id="s">
   <path d="m748.32 7720.2h249.44v-139.9h-249.44z" stroke-width=".26396"/>
  </clipPath>
  <clipPath id="z">
   <path d="m748.32 8e3h249.44v-139.9h-249.44z" stroke-width=".26396"/>
  </clipPath>
  <clipPath id="v">
   <path d="m748.32 7860.1h249.44v-139.9h-249.44z" stroke-width=".26396"/>
  </clipPath>
  <clipPath id="r">
   <path d="m748.32 7720.2h249.44v-139.9h-249.44z" stroke-width=".26396"/>
  </clipPath>
  <clipPath id="aa">
   <path d="m748.32 8e3h249.44v-139.9h-249.44z" stroke-width=".26396"/>
  </clipPath>
  <clipPath id="w">
   <path d="m748.32 7860.1h249.44v-139.9h-249.44z" stroke-width=".26396"/>
  </clipPath>
  <clipPath id="n">
   <path d="m748.32 7720.2h249.44v-139.9h-249.44z" stroke-width=".26396"/>
  </clipPath>
  <clipPath id="ab">
   <path d="m748.32 8e3h249.44v-139.9h-249.44z" stroke-width=".26396"/>
  </clipPath>
  <clipPath id="u">
   <path d="m748.32 7860.1h249.44v-139.9h-249.44z" stroke-width=".26396"/>
  </clipPath>
  <clipPath id="p">
   <path d="m748.32 7720.2h249.44v-139.9h-249.44z" stroke-width=".26396"/>
  </clipPath>
  <clipPath id="o">
   <path d="m748.32 7720.2h249.44v-139.9h-249.44z" stroke-width=".26396"/>
  </clipPath>
  <clipPath id="q">
   <path d="m748.32 7720.2h249.44v-139.9h-249.44z" stroke-width=".26396"/>
  </clipPath>
  <clipPath id="m">
   <path d="m748.32 7720.2h249.44v-139.9h-249.44z" stroke-width=".26396"/>
  </clipPath>
 </defs>
 <g transform="matrix(-1 0 0 1 156.18 -.052067)">
  <g transform="matrix(1.3333,0,0,-1.3333,0,1066.7)" fill="#dca92a">
   <g fill-opacity=".78039">
    <path transform="matrix(.1 0 0 .1 30 0)" d="m871.38 7960.3c-15.989-0.8649-28.682-14.088-28.682-30.293s12.692-29.443 28.682-30.308z" clip-path="url(#ae)"/>
    <path transform="matrix(.1 0 0 .1 30 0)" d="m871.38 7820.5c-15.989-0.8649-28.682-14.102-28.682-30.308 0-16.205 12.692-29.428 28.682-30.293v60.6z" clip-path="url(#y)"/>
    <path transform="matrix(.1 0 0 .1 30 0)" d="m871.38 7680.6c-15.989-0.865-28.682-14.102-28.682-30.308 0-16.205 12.692-29.443 28.682-30.308v60.615z" clip-path="url(#t)"/>
   </g>
   <g fill-opacity=".75">
    <path transform="matrix(.1 0 0 .1 18.309 -7.5)" d="m903.4 7930.1c0-16.764-13.591-30.355-30.355-30.355s-30.355 13.591-30.355 30.355 13.591 30.355 30.355 30.355 30.355-13.591 30.355-30.355" clip-path="url(#ac)"/>
    <path transform="matrix(.1 0 0 .1 18.309 -7.5)" d="m903.4 7790.2c0-16.764-13.591-30.355-30.355-30.355s-30.355 13.591-30.355 30.355 13.591 30.355 30.355 30.355 30.355-13.591 30.355-30.355" clip-path="url(#x)"/>
    <path transform="matrix(.1 0 0 .1 18.309 34.5)" d="m843 7654.5c-0.19422-1.3875-0.30761-2.807-0.30761-4.248 0-16.764 13.588-30.352 30.352-30.352s30.352 13.588 30.352 30.352c0 1.4408-0.11344 2.8607-0.30761 4.248z" clip-path="url(#s)"/>
   </g>
   <g fill-opacity=".6">
    <path transform="matrix(.1 0 0 .1 -6.6974 -7.5)" d="m903.4 7930.1c0-16.764-13.591-30.355-30.355-30.355s-30.355 13.591-30.355 30.355 13.591 30.355 30.355 30.355 30.355-13.591 30.355-30.355" clip-path="url(#z)"/>
    <path transform="matrix(.1 0 0 .1 -6.6974 -7.5)" d="m903.4 7790.2c0-16.764-13.591-30.355-30.355-30.355s-30.355 13.591-30.355 30.355 13.591 30.355 30.355 30.355 30.355-13.591 30.355-30.355" clip-path="url(#v)"/>
    <path transform="matrix(.1 0 0 .1 -6.6974 34.5)" d="m842.99 7654.5c-0.19417-1.3873-0.30761-2.8072-0.30761-4.248 0-16.764 13.602-30.352 30.366-30.352s30.352 13.588 30.352 30.352c0 1.4408-0.11344 2.8607-0.30762 4.248z" clip-path="url(#r)"/>
   </g>
   <g fill-opacity=".75">
    <path transform="matrix(.1 0 0 .1 30 0)" d="m653.96 7930.1c0-16.764-13.591-30.355-30.355-30.355s-30.355 13.591-30.355 30.355 13.591 30.355 30.355 30.355 30.355-13.591 30.355-30.355" clip-path="url(#l)"/>
    <path transform="matrix(.1 0 0 .1 30 0)" d="m653.96 7790.2c0-16.764-13.591-30.355-30.355-30.355s-30.355 13.591-30.355 30.355 13.591 30.355 30.355 30.355 30.355-13.591 30.355-30.355" clip-path="url(#j)"/>
    <path transform="matrix(.1 0 0 .1 30 0)" d="m653.96 7650.3c0-16.764-13.591-30.355-30.355-30.355s-30.355 13.591-30.355 30.355 13.591 30.355 30.355 30.355 30.355-13.591 30.355-30.355" clip-path="url(#h)"/>
   </g>
   <g fill-opacity=".6">
    <path transform="matrix(.1 0 0 .1 30.737 .13679)" d="m404.52 7930.1c0-16.764-13.591-30.355-30.355-30.355s-30.355 13.591-30.355 30.355 13.591 30.355 30.355 30.355 30.355-13.591 30.355-30.355" clip-path="url(#f)"/>
    <path transform="matrix(.1 0 0 .1 30.737 .13679)" d="m404.52 7790.2c0-16.764-13.591-30.355-30.355-30.355s-30.355 13.591-30.355 30.355 13.591 30.355 30.355 30.355 30.355-13.591 30.355-30.355" clip-path="url(#d)"/>
    <path transform="matrix(.1 0 0 .1 30.737 .13679)" d="m404.52 7650.3c0-16.764-13.591-30.355-30.355-30.355s-30.355 13.591-30.355 30.355 13.591 30.355 30.355 30.355 30.355-13.591 30.355-30.355" clip-path="url(#b)"/>
   </g>
   <g fill-opacity=".35">
    <path transform="matrix(.1 0 0 .1 -18.925 0)" d="m653.96 7930.1c0-16.764-13.591-30.355-30.355-30.355s-30.355 13.591-30.355 30.355 13.591 30.355 30.355 30.355 30.355-13.591 30.355-30.355" clip-path="url(#k)"/>
    <path transform="matrix(.1 0 0 .1 -18.925 0)" d="m653.96 7790.2c0-16.764-13.591-30.355-30.355-30.355s-30.355 13.591-30.355 30.355 13.591 30.355 30.355 30.355 30.355-13.591 30.355-30.355" clip-path="url(#i)"/>
    <path transform="matrix(.1 0 0 .1 -18.925 0)" d="m653.96 7650.3c0-16.764-13.591-30.355-30.355-30.355s-30.355 13.591-30.355 30.355 13.591 30.355 30.355 30.355 30.355-13.591 30.355-30.355" clip-path="url(#g)"/>
   </g>
   <g fill-opacity=".1">
    <path transform="matrix(.1 0 0 .1 -18.925 0)" d="m404.52 7930.1c0-16.764-13.591-30.355-30.355-30.355s-30.355 13.591-30.355 30.355 13.591 30.355 30.355 30.355 30.355-13.591 30.355-30.355" clip-path="url(#e)"/>
    <path transform="matrix(.1 0 0 .1 -18.925 0)" d="m404.52 7790.2c0-16.764-13.591-30.355-30.355-30.355s-30.355 13.591-30.355 30.355 13.591 30.355 30.355 30.355 30.355-13.591 30.355-30.355" clip-path="url(#c)"/>
    <path transform="matrix(.1 0 0 .1 -18.925 0)" d="m404.52 7650.3c0-16.764-13.591-30.355-30.355-30.355s-30.355 13.591-30.355 30.355 13.591 30.355 30.355 30.355 30.355-13.591 30.355-30.355" clip-path="url(#af)"/>
   </g>
   <g fill-opacity=".35">
    <path transform="matrix(.1 0 0 .1 -31.605 -7.5)" d="m903.4 7930.1c0-16.764-13.591-30.355-30.355-30.355s-30.355 13.591-30.355 30.355 13.591 30.355 30.355 30.355 30.355-13.591 30.355-30.355" clip-path="url(#aa)"/>
    <path transform="matrix(.1 0 0 .1 -31.605 -7.5)" d="m903.4 7790.2c0-16.764-13.591-30.355-30.355-30.355s-30.355 13.591-30.355 30.355 13.591 30.355 30.355 30.355 30.355-13.591 30.355-30.355" clip-path="url(#w)"/>
    <path transform="matrix(.1 0 0 .1 -31.605 34.5)" d="m843 7654.5c-0.19417-1.3873-0.30761-2.8072-0.30761-4.248 0-16.764 13.588-30.352 30.352-30.352s30.366 13.588 30.366 30.352c0 1.4408-0.11344 2.8607-0.30762 4.248z" clip-path="url(#n)"/>
   </g>
   <g fill-opacity=".2">
    <path transform="matrix(.1 0 0 .1 -56.134 -7.5)" d="m903.4 7930.1c0-16.764-13.591-30.355-30.355-30.355s-30.355 13.591-30.355 30.355 13.591 30.355 30.355 30.355 30.355-13.591 30.355-30.355" clip-path="url(#ab)"/>
    <path transform="matrix(.1 0 0 .1 -56.134 -7.5)" d="m903.4 7790.2c0-16.764-13.591-30.355-30.355-30.355s-30.355 13.591-30.355 30.355 13.591 30.355 30.355 30.355 30.355-13.591 30.355-30.355" clip-path="url(#u)"/>
    <path transform="matrix(.1 0 0 .1 -56.134 34.5)" d="m843 7654.5c-0.19418-1.3873-0.30762-2.8072-0.30762-4.248 0-16.764 13.588-30.352 30.352-30.352s30.366 13.588 30.366 30.352c0 1.4408-0.11344 2.8607-0.30762 4.248z" clip-path="url(#p)"/>
   </g>
   <path transform="matrix(.1 0 0 .1 18.309 -7.2617)" d="m873.05 7680.6c-15.949 0-29.029-12.303-30.264-27.934h60.513c-1.2342 15.632-14.3 27.934-30.249 27.934z" clip-path="url(#o)" fill-opacity=".75"/>
   <path transform="matrix(.1 0 0 .1 -6.6974 -7.2617)" d="m873.05 7680.6c-15.949 0-29.029-12.303-30.264-27.934h60.513c-1.2342 15.632-14.3 27.934-30.249 27.934z" clip-path="url(#q)" fill-opacity=".6"/>
   <path transform="matrix(.1 0 0 .1 -31.605 -7.2617)" d="m873.04 7680.6c-15.949 0-29.015-12.303-30.249-27.934h60.513c-1.2342 15.632-14.315 27.934-30.264 27.934z" clip-path="url(#m)" fill-opacity=".35"/>
   <path d="m31.17 760.8c-1.5949 0-2.9015-1.2303-3.0249-2.7934h6.0513c-0.12342 1.5632-1.4315 2.7934-3.0264 2.7934z" fill-opacity=".2"/>
  </g>
 </g>
</svg>
