<svg version="1.1" viewBox="0 0 16 16" xmlns="http://www.w3.org/2000/svg">
 <g fill="#808080" fill-rule="evenodd" stroke-width="75.6">
  <path transform="matrix(.704 0 0 .704 -3.62 11.5)" d="m8.74 3.05-0.502 1.03 0.622 1.08-1.14-0.158-0.834 0.925-0.201-1.13-1.14-0.507 1.01-0.541 0.131-1.24 0.828 0.797z"/>
  <path transform="matrix(.475 .167 -.167 .475 -.444 -1.04)" d="m8.74 3.05-0.502 1.03 0.622 1.08-1.14-0.158-0.834 0.925-0.201-1.13-1.14-0.507 1.01-0.541 0.131-1.24 0.828 0.797z"/>
  <path transform="matrix(-.299 .406 -.406 -.299 18.1 12.2)" d="m8.74 3.05-0.502 1.03 0.622 1.08-1.14-0.158-0.834 0.925-0.201-1.13-1.14-0.507 1.01-0.541 0.131-1.24 0.828 0.797z"/>
 </g>
</svg>
