<svg version="1.1" viewBox="0 0 24 24" xmlns="http://www.w3.org/2000/svg" xmlns:xlink="http://www.w3.org/1999/xlink">
 <defs>
  <style id="d" type="text/css">.ColorScheme-Text { color:#444444; } .ColorScheme-Highlight { color:#4285f4; } .ColorScheme-NeutralText { color:#ff9800; } .ColorScheme-PositiveText { color:#4caf50; } .ColorScheme-NegativeText { color:#f44336; }</style>
  <linearGradient id="c" x1="12.9" x2="16" y1="9.48" y2="9.48" gradientUnits="userSpaceOnUse">
   <stop stop-color="#8a0000" offset="0"/>
   <stop stop-opacity="0" offset="1"/>
  </linearGradient>
  <linearGradient id="b" x1="12" x2="14" y1="6.83" y2="4.88" gradientUnits="userSpaceOnUse">
   <stop stop-color="#8a3300" offset="0"/>
   <stop stop-opacity="0" offset="1"/>
  </linearGradient>
  <linearGradient id="a" x1="9.38" x2="10.2" y1="5.07" y2="2.29" gradientUnits="userSpaceOnUse">
   <stop stop-color="#9f6700" offset="0"/>
   <stop stop-opacity="0" offset="1"/>
  </linearGradient>
 </defs>
 <g transform="translate(4,4)" fill="#444">
  <path d="m8.78 2c-0.0516-0.0055-0.103 0.0099-0.143 0.045-0.0397 0.0351-0.0634 0.0856-0.0683 0.141l-0.227 2.49c-0.0104 0.114 0.069 0.218 0.176 0.228 0.618 0.0642 1.21 0.243 1.77 0.531 0.027 0.0137 0.057 0.0195 0.086 0.0195 0.022 0 0.042-0.0039 0.063-0.0117 0.048-0.0182 0.088-0.0557 0.111-0.106l1.01-2.25c0.046-0.104 6e-3 -0.227-0.09-0.277-0.848-0.438-1.75-0.709-2.69-0.807z" stroke="url(#a)" stroke-width=".2"/>
  <path d="m6.92 2.04c-0.934 0.136-1.83 0.445-2.66 0.918-0.0948 0.0539-0.13 0.18-0.0801 0.281l1.09 2.21c0.0349 0.0705 0.102 0.109 0.172 0.109 0.0306 0 0.0608-7e-3 0.0898-0.0235 0.548-0.312 1.14-0.514 1.75-0.604 0.106-0.0154 0.18-0.12 0.166-0.234l-0.312-2.48c-0.0144-0.114-0.113-0.193-0.219-0.178z"/>
  <path d="m12.9 3.83c-0.051 0.0057-0.098 0.0334-0.131 0.0762l-1.47 1.94c-0.033 0.0429-0.047 0.0974-0.041 0.152 5e-3 0.055 0.03 0.106 0.07 0.141 0.483 0.421 0.888 0.922 1.21 1.49 0.037 0.0652 0.102 0.102 0.168 0.102 0.034 0 0.068-0.0093 0.1-0.0293l2-1.28c0.044-0.0283 0.075-0.0734 0.088-0.127 0.012-0.0536 5e-3 -0.111-0.022-0.158-0.482-0.864-1.1-1.63-1.83-2.26-0.04-0.0349-0.091-0.0505-0.143-0.045z" stroke="url(#b)" stroke-width=".2"/>
  <path d="m2.86 4.04c-0.0516-0.0036-0.102 0.0143-0.141 0.0507-0.707 0.666-1.29 1.45-1.74 2.33-0.0247 0.0485-0.0301 0.107-0.0156 0.16 0.0145 0.053 0.0466 0.0966 0.0918 0.123l2.04 1.2c0.0295 0.0174 0.0622 0.0254 0.0937 0.0254 0.0687 0 0.135-0.0402 0.17-0.109 0.298-0.584 0.687-1.1 1.15-1.54 0.0388-0.0364 0.0612-0.0875 0.0645-0.143s-0.0129-0.111-0.0469-0.152l-1.54-1.88c-0.0339-0.0415-0.0813-0.0668-0.133-0.0703z"/>
  <path d="m15.4 7.83-2.22 0.746c-0.102 0.0343-0.159 0.152-0.127 0.262 0.16 0.546 0.24 1.12 0.24 1.7 0 0.085-2e-3 0.172-6e-3 0.266-2e-3 0.055 0.016 0.109 0.051 0.15s0.084 0.066 0.135 0.069l2.33 0.115h8e-3c0.103 0 0.188-0.088 0.193-0.199 6e-3 -0.139 0.01-0.27 0.01-0.401 0-0.874-0.123-1.74-0.365-2.57-0.032-0.11-0.14-0.171-0.242-0.137z" stroke="url(#c)" stroke-width=".2"/>
  <path d="m0.518 8.14c-0.0497-0.0144-0.104-0.0079-0.148 0.0195-0.0447 0.0275-0.0763 0.0737-0.0898 0.127-0.185 0.731-0.279 1.49-0.279 2.25 0 0.131 0.00373 0.262 0.00977 0.401 0.00483 0.111 0.0902 0.199 0.193 0.199h0.00977l2.33-0.115c0.0514-3e-3 0.1-0.028 0.135-0.069 0.0347-0.041 0.0532-0.095 0.0508-0.15-4e-3 -0.094-0.0059-0.181-0.0059-0.266 0-0.505 0.0617-1 0.184-1.49 0.028-0.111-0.0332-0.226-0.137-0.256z"/>
 </g>
</svg>
