<?xml version="1.0" encoding="UTF-8" standalone="no"?>
<svg
   width="24"
   height="24"
   version="1.1"
   id="svg9"
   sodipodi:docname="speed_fast.svg"
   inkscape:version="1.2.1 (9c6d41e410, 2022-07-14)"
   xmlns:inkscape="http://www.inkscape.org/namespaces/inkscape"
   xmlns:sodipodi="http://sodipodi.sourceforge.net/DTD/sodipodi-0.dtd"
   xmlns="http://www.w3.org/2000/svg"
   xmlns:svg="http://www.w3.org/2000/svg">
  <sodipodi:namedview
     id="namedview11"
     pagecolor="#505050"
     bordercolor="#ffffff"
     borderopacity="1"
     inkscape:pageshadow="0"
     inkscape:pageopacity="0"
     inkscape:pagecheckerboard="1"
     showgrid="false"
     inkscape:zoom="32.833333"
     inkscape:cx="11.345178"
     inkscape:cy="13.187817"
     inkscape:window-width="1280"
     inkscape:window-height="649"
     inkscape:window-x="0"
     inkscape:window-y="25"
     inkscape:window-maximized="1"
     inkscape:current-layer="svg9"
     inkscape:showpageshadow="0"
     inkscape:deskcolor="#505050" />
  <defs
     id="defs3">
    <style
       id="current-color-scheme"
       type="text/css">
   .ColorScheme-Text { color:#444444; } .ColorScheme-Highlight { color:#4285f4; } .ColorScheme-NeutralText { color:#ff9800; } .ColorScheme-PositiveText { color:#4caf50; } .ColorScheme-NegativeText { color:#f44336; }
  </style>
  </defs>
  <g
     transform="translate(4,4)"
     id="g7"
     style="fill:#444444;fill-opacity:1">
    <path
       style="fill:#444444;fill-opacity:1"
       class="ColorScheme-Text"
       d="M 6.0469,11.572 C 6.0159108,11.712563 6.0001863,11.856061 6,12 c 0,1.104569 0.8954305,2 2,2 1.1045695,0 2,-0.895431 2,-2 0,-1.104569 -0.8954305,-2 -2,-2 -0.077077,8.87e-4 -0.1540392,0.0062 -0.2305,0.016 -0.3248808,1.22197 0.077453,1.271662 -1.7226,1.556 z"
       id="path5"
       sodipodi:nodetypes="ccssccc" />
  </g>
  <path
     d="m 15.382671,12.057703 c 0.0423,0.0053 0.0829,0.0254 0.1153,0.0586 0.0647,0.0665 0.0793,0.1712 0.0371,0.2559 l -1.586,3.1871 c 0.03099,0.140563 0.04671,0.284061 0.0469,0.428 0,1.104569 -0.895431,2 -2,2 -1.104569,0 -2.0000004,-0.895431 -2.0000004,-2 0,-1.104569 0.8954314,-2 2.0000004,-2 0.07708,8.87e-4 0.154039,0.0062 0.2305,0.016 l 3.0312,-1.9163 c 0.0386,-0.0244 0.0828,-0.0345 0.125,-0.0293 z"
     style="stroke-width:0.804;fill:#444444;fill-rule:evenodd;fill-opacity:1"
     id="path293" />
  <path
     id="path3341"
     style="fill:#444444;fill-opacity:1;fill-rule:evenodd;stroke-width:0.0244873"
     d="M 15.373047 12.066406 C 15.362262 12.064714 15.351188 12.065903 15.341797 12.068359 C 15.310319 12.076591 14.599709 12.516902 13.761719 13.046875 L 12.390625 13.912109 C 12.383535 13.916044 12.373855 13.922163 12.367188 13.925781 C 12.227884 14.001379 12.177611 14.009766 12.107422 14.009766 L 11.982422 14.009766 C 10.847191 14.011766 9.944434 14.968379 10.015625 16.095703 C 10.048914 16.622837 10.220042 16.998446 10.597656 17.376953 C 10.904975 17.684998 11.219647 17.86045 11.603516 17.9375 C 11.670521 17.95095 11.844387 17.964997 11.988281 17.966797 C 12.809189 17.977268 13.565003 17.457775 13.855469 16.685547 C 13.961458 16.403648 14.00862 16.015842 13.96875 15.759766 L 13.939453 15.572266 L 13.939453 15.556641 L 14.742188 13.945312 C 15.185221 13.05845 15.548828 12.302072 15.548828 12.263672 C 15.548828 12.184376 15.448541 12.078253 15.373047 12.066406 z " />
</svg>
