<?xml version="1.0" encoding="UTF-8" standalone="no"?>
<svg
   viewBox="0 0 24 24"
   version="1.1"
   id="svg4"
   sodipodi:docname="gnu.svg"
   inkscape:version="1.2.1 (9c6d41e410, 2022-07-14)"
   xmlns:inkscape="http://www.inkscape.org/namespaces/inkscape"
   xmlns:sodipodi="http://sodipodi.sourceforge.net/DTD/sodipodi-0.dtd"
   xmlns="http://www.w3.org/2000/svg"
   xmlns:svg="http://www.w3.org/2000/svg">
  <defs
     id="defs8" />
  <sodipodi:namedview
     id="namedview6"
     pagecolor="#505050"
     bordercolor="#ffffff"
     borderopacity="1"
     inkscape:showpageshadow="0"
     inkscape:pageopacity="0"
     inkscape:pagecheckerboard="1"
     inkscape:deskcolor="#505050"
     showgrid="false"
     inkscape:zoom="22.666667"
     inkscape:cx="8.4044118"
     inkscape:cy="20.691176"
     inkscape:window-width="1280"
     inkscape:window-height="696"
     inkscape:window-x="0"
     inkscape:window-y="0"
     inkscape:window-maximized="1"
     inkscape:current-layer="svg4" />
  <path
     d="m 10.5,18.436742 c 0.276142,0 0.5,0.223858 0.5,0.5 0,0.276142 -0.223858,0.5 -0.5,0.5 -0.276142,0 -0.5,-0.223858 -0.5,-0.5 0,-0.276142 0.223858,-0.5 0.5,-0.5 m 3,0 c 0.276142,0 0.5,0.223858 0.5,0.5 0,0.276142 -0.223858,0.5 -0.5,0.5 -0.276142,0 -0.5,-0.223858 -0.5,-0.5 0,-0.276142 0.223858,-0.5 0.5,-0.5 M 9.8128247,11 c 0.5522853,0 1.0000003,0.447715 1.0000003,1 0,0.552285 -0.403597,0 -0.9558827,0 -0.5522847,0 -1.0441176,0.552285 -1.0441176,0 0,-0.552285 0.4477153,-1 1,-1 m 4.3743503,0 c 0.552285,0 1,0.447715 1,1 0,0.552285 -0.470423,0 -1.022708,0 -0.552285,0 -0.977292,0.552285 -0.977292,0 0,-0.552285 0.447715,-1 1,-1 M 18,18 c 0,2.21 -2.69,4 -6,4 C 8.69,22 6,20.21 6,18 6,17.1 6.2735294,16.27 7.0235294,15.6 6.2735294,14.6 6,13.35 6,12 l 0.12,-1.572941 c -0.54,0.15 -1.19,0.15 -1.72,0 C 3.38,10.147059 2.3694118,9.35 2.5994118,8.55 2.8294118,7.75 4.21,7.6 5.23,7.9 5.82,8.07 6.45,8.5 6.82,8.96 L 7.39,8.15 C 6.79,7.05 6.7504329,3.7352941 9.7504329,2.7352941 l -0.09,0.14 v 0 c 0,0 -1.4991342,2.0947059 -0.7391342,3.5947059 C 9.6412987,6.17 11.17,6.1871753 12,6.1871753 c 0.83,0 2.358701,-0.017175 3.078701,0.2828247 0.76,-1.5 -0.459134,-3.1547059 -0.739134,-3.5947059 l -0.09,-0.14 c 3,1 2.960433,4.3147059 2.360433,5.4147059 l 0.57,0.81 c 0.37,-0.46 1,-0.89 1.59,-1.06 1.02,-0.3 2.400588,-0.1058824 2.630588,0.6941176 0.23,0.8 -0.781349,1.6825374 -1.800588,1.9652944 C 19.069228,10.706658 18.42,10.93 17.88,10.78 L 18,12 c 0,1.35 -0.273529,2.6 -1.023529,3.6 C 17.726471,16.27 18,17.1 18,18 m -6,-2 c -2.21,0 -3.8752165,0.9 -3.8752165,2 0,1.1 1.79,2 4.0000005,2 2.21,0 3.750432,-0.9 3.750432,-2 C 15.875216,16.9 14.21,16 12,16 m 0,-2 c 1.12,0 2.17,0.21 3.07,0.56 C 15.65,13.87 16,13 16,12 16,9.790861 14.209139,8 12,8 9.790861,8 8,9.790861 8,12 8,13 8.35,13.87 8.93,14.56 9.83,14.21 10.88,14 12,14"
     id="path2"
     sodipodi:nodetypes="csssccsssccsssccsssccssccccscccccscsccccccsscccccssscccssscc" />
</svg>
